<svg xmlns="http://www.w3.org/2000/svg" viewBox="0 0 769.42 299.94"><defs><style>.cls-1{fill:#575756}.cls-2{fill:#1d1d1b}.cls-3{fill:#deba9d}</style></defs><g id="Слой_2" data-name="Слой 2"><g id="Слой_1-2" data-name="Слой 1"><path class="cls-1" d="M76.18 19.05a19 19 0 1 1-19-19 19 19 0 0 1 19 19.05"/><path class="cls-2" d="M57.65 186.82A36.89 36.89 0 1 1 81 121.38l10.78-17.84a57.61 57.61 0 1 0 2.71 90.74l-10.97-18.09a36.78 36.78 0 0 1-25.87 10.63M176.77 112.42a37.52 37.52 0 1 1-37.51 37.51 37.56 37.56 0 0 1 37.51-37.51m0-20.13a57.65 57.65 0 1 0 57.65 57.64 57.64 57.64 0 0 0-57.65-57.64M604.32 112.42a37.52 37.52 0 1 1-37.52 37.51 37.56 37.56 0 0 1 37.52-37.51m0-20.13A57.65 57.65 0 1 0 662 149.93a57.65 57.65 0 0 0-57.64-57.64M270.5 123.11c0-16.77 13.09-30.82 34.81-30.82 13.74 0 25.23 4.63 31.94 12L326.71 119c-5.43-5.27-10.86-8.31-19.8-8.31-9.74 0-15.65 4.95-15.65 12.3 0 23.15 50.62 15.81 50.62 53 0 18.84-16.45 31.62-37.37 31.62-14.37 0-31.13-6.23-36.56-17.56l11.18-13.42a33.62 33.62 0 0 0 25.7 12.61c9.27 0 16.29-4.63 16.29-13.09 0-22-50.62-16.6-50.62-53M698 123.11c0-16.77 13.1-30.82 34.81-30.82 13.74 0 25.23 4.63 31.94 12L754.25 119c-5.43-5.27-10.86-8.31-19.8-8.31-9.74 0-15.65 4.95-15.65 12.3 0 23.15 50.62 15.81 50.62 53 0 18.84-16.45 31.62-37.37 31.62-14.37 0-31.14-6.23-36.56-17.56l11.17-13.42a33.66 33.66 0 0 0 25.71 12.61c9.27 0 16.29-4.63 16.29-13.09 0-22-50.62-16.6-50.62-53M473.63 93.99l-29.62 78.42-31.02-78.42h-18.27L374.29 205.8h20.46l12.9-70.58 27.93 70.58h17.34l26.82-71 14.68 71h20.56L491.85 93.99h-18.22z"/><path class="cls-3" d="M249.5 56.57a19 19 0 1 1-19-19 19 19 0 0 1 19 19M732.46 19.05A19 19 0 1 1 713.41 0a19 19 0 0 1 19.05 19.05"/><path class="cls-1" d="M558 56.57a19 19 0 1 1-19-19 19.05 19.05 0 0 1 19 19"/><path d="M403.79 19.05A19 19 0 1 1 384.74 0a19 19 0 0 1 19.05 19.05" fill="#a2c73b"/><path class="cls-2" d="M177.12 299.36h-6.42v-15.74h-16.85v15.74h-6.47V262.5h6.47v15.06h16.85V262.5h6.42zM194.81 280.93a18.53 18.53 0 0 1 19.16-19 18.94 18.94 0 0 1 13.75 5.26 19.87 19.87 0 0 1 0 27.38 20.42 20.42 0 0 1-27.49.1q-5.41-5.25-5.42-13.74zm6.84 0a12.89 12.89 0 0 0 3.53 9.27 11.68 11.68 0 0 0 8.79 3.68 11.52 11.52 0 0 0 9-3.68 13.25 13.25 0 0 0 3.37-9.27 12.83 12.83 0 0 0-3.58-9.31 12.51 12.51 0 0 0-17.64 0 12.94 12.94 0 0 0-3.47 9.31zM258.25 268.56H246.3v-6.06h30.38v6.06h-11.95v30.8h-6.48zM314.37 299.36h-21.85V262.5h21.33v6.06H299v9.16h13.27v6.06H299v9.52h15.37zM356.07 299.36H333V262.5h6.47v30.8h16.59zM417.61 285.57h-8.9v-6.06h15v15.27a16.74 16.74 0 0 1-6.32 3.79 22.88 22.88 0 0 1-7.47 1.37q-9 0-14.11-5.16t-5.11-13.85a19.1 19.1 0 0 1 5.06-13.53q5.06-5.47 13.32-5.47a18.61 18.61 0 0 1 11.84 3.74l-2.73 5.15a9.76 9.76 0 0 0-3.64-2.08 14.8 14.8 0 0 0-4.68-.76 11.82 11.82 0 0 0-8.9 3.48q-3.42 3.42-3.42 9.47a13.09 13.09 0 0 0 3.42 9.43 12 12 0 0 0 9.06 3.52 14.27 14.27 0 0 0 4.31-.73 8.84 8.84 0 0 0 3.32-1.79zM448.36 285.57v13.79h-6.48V262.5c1.83 0 3.81 0 5.95-.05s3.89-.05 5.26-.05q13.38 0 13.37 11.37a10.57 10.57 0 0 1-7.1 10.53l11.53 15.06H463l-10.16-13.79zm4.42-17.12h-4.42v10.95h4.21a8.12 8.12 0 0 0 5.08-1.52 5 5 0 0 0 2-4.16q-.03-5.26-6.87-5.27zM484 280.93a18.53 18.53 0 0 1 19.16-19 18.9 18.9 0 0 1 13.74 5.26 19.84 19.84 0 0 1 0 27.38 20.4 20.4 0 0 1-27.48.1q-5.42-5.25-5.42-13.74zm6.84 0a12.89 12.89 0 0 0 3.53 9.27 11.68 11.68 0 0 0 8.79 3.68 11.52 11.52 0 0 0 9-3.68 13.21 13.21 0 0 0 3.37-9.27 12.79 12.79 0 0 0-3.58-9.31 12.51 12.51 0 0 0-17.64 0 12.93 12.93 0 0 0-3.47 9.31zM563.44 262.5h6.43v21.59q0 7.95-4.16 11.9a14.75 14.75 0 0 1-10.48 3.95q-7.11 0-11.42-4.16t-4.27-12.06V262.5H546v19.85q0 5.47 2.34 8.51a8.14 8.14 0 0 0 6.87 3q8.21 0 8.21-11.11zM596.29 286v13.32h-6.47V262.5c1.54 0 3.21 0 5-.05s3.65-.05 5.47-.05a21.07 21.07 0 0 1 6.77 1 10.59 10.59 0 0 1 4.45 2.68 11.27 11.27 0 0 1 2.32 3.74 12.94 12.94 0 0 1 .73 4.45 11.33 11.33 0 0 1-3.58 8.47q-3.53 3.48-9.89 3.48c-2.15-.02-3.74-.07-4.8-.22zm4.64-17.59l-4.64.11v11.32c1.86.17 3.39.26 4.59.26a7.68 7.68 0 0 0 5-1.52 5.42 5.42 0 0 0 1.87-4.43q-.03-5.69-6.82-5.7z"/></g></g></svg>