<svg width="16" height="14" xmlns="http://www.w3.org/2000/svg"><g fill="#292f37" fill-rule="evenodd"><path d="M8.1724.9219l5.568 2.608-.386.648H2.9904l-.386-.648 5.568-2.608zm-5.681 3.785c.063.106.178.17.301.17h10.76c.123 0 .238-.064.301-.17l.686-1.149c.051-.085.064-.188.034-.282-.028-.095-.096-.173-.186-.215L8.3204.2179c-.093-.043-.203-.043-.296 0l-6.068 2.843c-.09.042-.157.12-.186.215-.029.094-.016.197.034.282l.687 1.149zM2.8926 9.4902v.621c0 .193.157.35.35.35.193 0 .35-.157.35-.35v-.271h9.155v.271c0 .193.157.35.35.35.193 0 .35-.157.35-.35v-.621c0-.193-.157-.35-.35-.35h-9.855c-.193 0-.35.157-.35.35M14.2788 12.6777c.193 0 .35-.156.35-.35v-1.05c0-.194-.157-.35-.35-.35H2.1618c-.194 0-.35.156-.35.35v1.05c0 .194.156.35.35.35.193 0 .35-.156.35-.35v-.701h11.417v.701c0 .194.157.35.35.35M4.4839 8.0771v-2.206c0-.193-.157-.35-.35-.35-.193 0-.35.157-.35.35v2.206c0 .193.157.35.35.35.193 0 .35-.157.35-.35M6.4521 8.0771v-2.206c0-.193-.157-.35-.35-.35-.193 0-.35.157-.35.35v2.206c0 .193.157.35.35.35.193 0 .35-.157.35-.35M8.4204 8.0771v-2.206c0-.193-.157-.35-.35-.35-.193 0-.35.157-.35.35v2.206c0 .193.157.35.35.35.193 0 .35-.157.35-.35M10.3887 8.0771v-2.206c0-.193-.157-.35-.35-.35-.193 0-.35.157-.35.35v2.206c0 .193.157.35.35.35.193 0 .35-.157.35-.35M12.3569 8.0771v-2.206c0-.193-.157-.35-.35-.35-.193 0-.35.157-.35.35v2.206c0 .193.157.35.35.35.193 0 .35-.157.35-.35M14.9399 13.1299H.8999c-.193 0-.35.156-.35.35 0 .193.157.349.35.349h14.04c.193 0 .35-.156.35-.349 0-.194-.157-.35-.35-.35"/></g></svg>
