<svg width="16" height="15" viewBox="0 0 16 15" fill="none" xmlns="http://www.w3.org/2000/svg">
<path d="M9.60039 5.17313C10.7136 5.4946 11.9431 4.61567 12.3484 3.21002C12.7537 1.8061 12.1808 0.40729 11.0676 0.0858228C9.95435 -0.235672 8.72487 0.643284 8.31958 2.04894C7.91431 3.45286 8.48717 4.85166 9.60039 5.17313Z" fill="#2D3137"/>
<path d="M12.9982 12.0834C13.4103 13.9747 11.3566 14.3851 10.452 14.1388C9.54736 13.8926 7.70224 13.8515 7.70224 13.8515C7.70224 13.8515 5.85201 13.8926 4.9474 14.1388C4.0428 14.3868 1.98737 13.9747 2.39777 12.0834C2.58635 11.2143 3.07027 10.7619 3.58641 10.2794C4.19354 9.71187 4.84525 9.10261 5.11329 7.72453C5.60749 5.17489 7.70397 5.33905 7.70397 5.33905C7.70397 5.33905 9.79531 5.17489 10.2895 7.72453C10.5558 9.10312 11.2061 9.7123 11.8121 10.2801C12.3268 10.7623 12.8097 11.2147 12.9982 12.0834Z" fill="#2D3137"/>
<path d="M11.2726 6.32054C11.825 4.96624 13.1417 4.22406 14.2139 4.66184C15.2861 5.0996 15.7067 6.54968 15.1544 7.90401C14.602 9.25833 13.2853 9.99878 12.2131 9.56273C11.141 9.1267 10.7203 7.67489 11.2726 6.32054Z" fill="#2D3137"/>
<path d="M5.79543 5.17311C6.90865 4.85162 7.48151 3.45284 7.07625 2.04892C6.67098 0.644997 5.43977 -0.233958 4.32823 0.0875364C3.21671 0.409003 2.64215 1.80778 3.04742 3.21173C3.45271 4.61565 4.68222 5.49458 5.79543 5.17311Z" fill="#2D3137"/>
<path d="M4.1248 6.32063C4.67715 7.67325 4.25649 9.12506 3.18429 9.56282C2.11212 10.0006 0.795406 9.25842 0.243087 7.9041C-0.309261 6.55151 0.111398 5.09969 1.18357 4.66194C2.25574 4.22415 3.57246 4.96801 4.1248 6.32063Z" fill="#2D3137"/>
</svg>
