<svg width="24" height="24" fill="none" xmlns="http://www.w3.org/2000/svg"><path d="M20.392 21.36a1.44 1.44 0 1 1-2.88 0 1.44 1.44 0 0 1 2.88 0zM10.08 12.24a1.44 1.44 0 1 1-2.88 0 1.44 1.44 0 0 1 2.88 0z" fill="#333"/><path fill-rule="evenodd" clip-rule="evenodd" d="M21.6 14.421a3.523 3.523 0 0 0-3.523-3.522H12a1.2 1.2 0 1 0 0 2.4h6.077a1.123 1.123 0 1 1 0 2.245H6c-2 0-3.6 1.642-3.6 3.619C2.4 21.139 4 22.78 6 22.78h9.75a1.2 1.2 0 1 0 0-2.4H6c-.65 0-1.2-.544-1.2-1.218 0-.675.55-1.219 1.2-1.219h12.077a3.523 3.523 0 0 0 3.523-3.522zM11.443 1.243a4.243 4.243 0 0 0-6 6l2.333 2.333a.943.943 0 0 0 1.333 0l2.334-2.333a4.243 4.243 0 0 0 0-6zm-3 4.692a1.692 1.692 0 1 0 0-3.384 1.692 1.692 0 0 0 0 3.384z" fill="#333"/></svg>