<svg width="16" height="16" viewBox="0 0 16 16" fill="none" xmlns="http://www.w3.org/2000/svg">
<path d="M1.3125 3.55328L3.21982 6.9625V9.04203L1.31473 12.4446L1.3125 3.55328Z" fill="#5B57A2"/>
<path d="M8.63586 5.72193L10.4231 4.62652L14.0808 4.62311L8.63586 7.9587V5.72193Z" fill="#D90751"/>
<path d="M8.6258 3.53317L8.63591 8.04686L6.72412 6.87217V0.125L8.6258 3.53317Z" fill="#FAB718"/>
<path d="M14.0808 4.62307L10.423 4.62648L8.6258 3.53317L6.72412 0.125L14.0808 4.62307Z" fill="#ED6F26"/>
<path d="M8.63591 12.4634V10.2735L6.72412 9.12115L6.72517 15.875L8.63591 12.4634Z" fill="#63B22F"/>
<path d="M10.4186 11.378L3.21969 6.9625L1.3125 3.55328L14.073 11.3736L10.4186 11.378Z" fill="#1487C9"/>
<path d="M6.72534 15.875L8.63582 12.4634L10.4186 11.3779L14.073 11.3735L6.72534 15.875Z" fill="#017F36"/>
<path d="M1.31482 12.4445L6.73978 9.1213L4.91593 8.00226L3.21991 9.04202L1.31482 12.4445Z" fill="#984995"/>
</svg>
